<?xml version="1.0" encoding="UTF-8" standalone="no"?>
<svg
   version="1.0"
   width="1280.0353pt"
   height="1346.2351pt"
   viewBox="0 0 1280.0353 1346.2351"
   preserveAspectRatio="xMidYMid"
   id="svg887"
   sodipodi:docname="Käsilogo.svg"
   inkscape:version="1.0.2 (e86c870879, 2021-01-15, custom)"
   xmlns:inkscape="http://www.inkscape.org/namespaces/inkscape"
   xmlns:sodipodi="http://sodipodi.sourceforge.net/DTD/sodipodi-0.dtd"
   xmlns="http://www.w3.org/2000/svg"
   xmlns:svg="http://www.w3.org/2000/svg"
   xmlns:rdf="http://www.w3.org/1999/02/22-rdf-syntax-ns#"
   xmlns:cc="http://creativecommons.org/ns#"
   xmlns:dc="http://purl.org/dc/elements/1.1/">
  <defs
     id="defs891" />
  <sodipodi:namedview
     pagecolor="#ffffff"
     bordercolor="#666666"
     borderopacity="1"
     objecttolerance="10"
     gridtolerance="10"
     guidetolerance="10"
     inkscape:pageopacity="0"
     inkscape:pageshadow="2"
     inkscape:window-width="2400"
     inkscape:window-height="1271"
     id="namedview889"
     showgrid="false"
     inkscape:zoom="11.313709"
     inkscape:cx="3111.8672"
     inkscape:cy="423.79953"
     inkscape:window-x="2391"
     inkscape:window-y="-9"
     inkscape:window-maximized="1"
     inkscape:current-layer="svg887"
     inkscape:document-rotation="0"
     inkscape:showpageshadow="2"
     inkscape:pagecheckerboard="0"
     inkscape:deskcolor="#d1d1d1"
     inkscape:document-units="pt" />
  <metadata
     id="metadata863">
Created by potrace 1.16, written by Peter Selinger 2001-2019
<rdf:RDF>
  <cc:Work
     rdf:about="">
    <dc:format>image/svg+xml</dc:format>
    <dc:type
       rdf:resource="http://purl.org/dc/dcmitype/StillImage" />
  </cc:Work>
</rdf:RDF>
</metadata>
  <g
     id="g868"
     transform="translate(1853.5754,327.1652)"
     inkscape:export-xdpi="96"
     inkscape:export-ydpi="96"
     inkscape:groupmode="layer">
    <g
       transform="matrix(0.1,0,0,-0.1,-1850.5754,1019.0699)"
       fill="#000000"
       stroke="none"
       id="g885"
       inkscape:export-xdpi="96"
       inkscape:export-ydpi="96">
      <path
         d="M 0,6400 V 0 h 6400 6400 v 6400 6400 H 8971 5142 l 75,-72 c 125,-121 172,-222 203,-433 16,-106 -3,-582 -31,-784 -11,-78 -18,-145 -16,-148 3,-2 27,11 54,30 154,110 296,144 571,134 l 167,-6 155,39 c 85,21 193,50 240,65 47,14 139,41 205,61 66,19 145,43 175,54 30,10 107,34 170,52 111,32 121,33 305,33 151,1 214,6 309,23 226,42 370,24 517,-66 97,-58 183,-142 233,-225 58,-97 81,-290 50,-419 -6,-27 -5,-28 27,-20 19,4 70,7 114,6 82,0 131,-17 295,-96 64,-31 171,-145 215,-229 37,-70 85,-237 85,-296 0,-29 10,-40 117,-120 353,-264 688,-593 959,-943 409,-528 722,-1173 884,-1820 105,-419 150,-786 150,-1220 0,-776 -168,-1500 -510,-2195 -250,-507 -548,-924 -950,-1325 -841,-841 -1949,-1347 -3149,-1440 -173,-13 -549,-13 -722,0 -1200,93 -2308,599 -3149,1440 -402,401 -700,818 -950,1325 -285,579 -450,1184 -500,1834 -13,173 -13,549 0,722 74,964 413,1864 991,2635 l 98,130 -17,45 c -12,32 -16,77 -17,169 0,112 3,134 30,215 18,56 50,121 85,175 30,47 75,125 99,174 37,76 45,106 57,198 32,261 101,381 279,488 54,32 66,35 156,38 188,8 312,-36 438,-153 54,-50 151,-180 164,-219 2,-7 17,-4 41,9 59,32 74,51 80,102 3,27 10,78 16,116 5,37 10,89 10,115 0,26 7,83 16,127 12,64 14,117 9,260 -10,268 26,500 100,644 15,30 27,79 34,137 6,50 20,126 31,169 25,99 138,316 207,401 l 53,64 H 2200 0 Z"
         id="path865" />
      <path
         d="m 4654,12689 c -37,-7 -112,-57 -147,-98 -28,-34 -139,-248 -155,-301 -6,-19 -18,-87 -27,-150 -18,-129 -30,-174 -55,-210 -10,-14 -30,-72 -45,-130 -27,-101 -28,-115 -30,-370 -2,-160 -7,-295 -15,-340 -7,-41 -14,-102 -15,-135 -3,-79 -21,-209 -46,-320 -11,-49 -22,-100 -25,-112 -3,-15 -48,-48 -151,-111 -82,-50 -177,-111 -212,-136 -36,-25 -66,-45 -67,-43 -2,1 -8,54 -14,116 -13,126 -32,194 -76,266 -70,117 -180,188 -308,200 -83,8 -110,-1 -177,-62 -68,-62 -87,-116 -114,-321 -13,-102 -20,-125 -67,-220 -29,-59 -72,-135 -95,-169 -75,-110 -108,-204 -107,-304 1,-60 6,-86 27,-131 15,-31 27,-63 27,-70 0,-7 9,-26 20,-43 11,-16 20,-37 20,-46 0,-8 -34,-58 -75,-110 -259,-324 -491,-715 -655,-1099 -129,-301 -250,-712 -304,-1030 -54,-316 -61,-410 -61,-810 0,-400 7,-494 61,-810 176,-1032 726,-2018 1514,-2713 162,-143 473,-380 509,-389 14,-3 34,44 91,212 21,63 57,166 79,228 23,63 41,122 41,131 0,35 79,178 132,241 64,75 130,200 163,310 21,66 67,198 120,340 42,115 47,152 50,380 4,242 -3,308 -47,435 -84,239 -123,370 -133,445 -7,47 -22,155 -34,240 -12,85 -31,184 -41,220 -21,68 -54,295 -46,308 3,5 10,46 15,92 9,72 8,94 -9,166 -11,45 -21,99 -22,121 -1,44 16,83 37,83 8,0 15,9 15,20 0,21 23,111 38,150 20,52 -16,175 -75,256 -13,17 -23,34 -23,38 0,4 -11,22 -23,39 -13,18 -34,59 -47,92 -26,65 -65,143 -104,203 -37,58 -222,271 -264,304 -29,23 -47,53 -82,137 -25,59 -60,132 -77,164 -18,31 -33,62 -33,68 0,12 -65,125 -149,257 -25,40 -72,103 -103,138 -77,87 -148,182 -163,219 -7,17 -23,71 -35,120 -12,50 -35,140 -51,200 -17,62 -31,149 -34,200 -3,49 -10,105 -15,125 -5,19 -12,69 -15,110 -9,111 -23,155 -118,374 -12,26 -21,65 -21,85 0,56 33,145 80,219 23,37 68,117 99,179 32,62 63,117 69,123 7,5 49,22 92,38 67,23 82,33 96,60 9,19 23,41 31,50 23,27 87,196 87,231 0,17 5,31 11,31 38,0 131,-118 158,-200 21,-66 30,-239 18,-365 -8,-88 -7,-140 1,-200 7,-45 12,-102 12,-127 0,-25 6,-64 14,-86 8,-23 20,-78 26,-124 7,-46 21,-103 31,-126 78,-173 106,-308 76,-370 -52,-105 -44,-274 18,-400 19,-39 35,-77 35,-84 0,-7 11,-33 25,-57 14,-23 25,-47 25,-53 0,-12 147,-311 197,-400 44,-79 67,-85 95,-28 14,29 15,44 6,95 -6,33 -18,71 -27,85 -58,89 -96,223 -107,378 -6,72 -4,92 6,92 16,0 73,-42 115,-85 17,-16 53,-48 80,-69 28,-22 63,-51 78,-65 23,-21 39,-26 85,-27 84,-3 116,15 132,73 28,99 18,159 -50,308 -24,51 -31,86 -49,243 -11,92 -29,197 -40,232 -11,36 -23,90 -26,120 -9,74 -30,154 -71,275 -76,225 -107,379 -87,435 6,19 12,67 13,105 0,39 7,97 16,130 9,33 20,89 25,125 6,36 16,94 24,130 20,93 38,225 40,295 1,33 10,105 20,160 15,84 16,130 10,285 -9,256 10,387 75,525 16,33 37,99 46,146 l 16,87 27,-14 c 14,-8 31,-14 36,-14 6,1 -3,8 -18,16 -29,15 -29,16 -22,92 5,67 14,92 64,192 48,97 65,121 107,152 31,24 56,36 67,32 9,-3 42,0 72,6 42,9 64,9 90,0 44,-15 135,-85 135,-105 0,-8 7,-15 16,-15 35,0 75,-80 93,-185 12,-68 12,-112 -5,-510 -2,-66 -11,-160 -19,-210 -51,-320 -60,-488 -53,-990 0,-11 0,-69 -2,-130 -1,-81 3,-120 14,-147 20,-46 20,-74 2,-81 -19,-8 -57,-112 -58,-161 -4,-144 15,-335 50,-496 11,-50 4,-180 -9,-180 -14,0 -10,-71 7,-120 9,-25 40,-95 69,-155 45,-91 57,-128 69,-206 18,-121 46,-188 102,-239 71,-66 90,-48 60,56 -8,27 -22,83 -31,124 -28,117 -42,154 -95,243 -28,45 -50,92 -50,103 0,12 -9,43 -21,69 -12,28 -19,58 -16,74 3,14 9,40 12,56 11,53 39,135 47,135 18,0 58,-72 77,-140 25,-92 51,-159 72,-190 12,-18 20,-22 35,-15 10,4 38,7 61,6 34,-2 47,2 67,23 30,33 34,84 24,296 -4,85 -12,245 -17,355 -10,226 -25,378 -47,480 -28,124 -32,160 -35,271 -3,188 9,291 44,354 67,123 193,215 328,241 76,14 281,13 325,-3 31,-11 58,-6 324,57 108,26 276,73 330,93 30,11 116,37 190,58 74,20 140,40 145,45 6,4 59,20 118,34 101,24 117,25 294,20 160,-4 190,-8 201,-22 9,-13 12,-14 12,-2 1,34 28,49 117,63 111,18 173,7 249,-45 139,-94 166,-192 96,-343 -43,-91 -100,-157 -131,-151 -13,2 -18,-1 -15,-9 7,-19 -13,-32 -117,-76 -51,-22 -124,-58 -161,-81 -60,-35 -70,-38 -90,-27 -55,30 -94,38 -160,32 -53,-5 -73,-3 -92,10 -17,10 -47,16 -89,16 -34,0 -68,5 -74,11 -14,14 -80,7 -157,-16 -58,-18 -58,-18 -100,4 -39,22 -44,22 -77,8 -31,-13 -38,-13 -55,0 -13,11 -34,13 -73,9 -45,-4 -60,-11 -93,-43 -38,-37 -78,-109 -78,-141 0,-8 -18,-32 -39,-52 -62,-59 -73,-90 -76,-204 -2,-74 -8,-116 -24,-158 -18,-49 -20,-64 -11,-100 6,-24 13,-75 15,-115 2,-40 11,-86 20,-102 19,-38 19,-110 0,-181 -15,-58 -11,-122 11,-154 8,-12 10,-26 4,-41 -15,-40 32,-285 68,-352 6,-11 11,-53 12,-94 0,-41 0,-89 1,-108 0,-19 5,-43 10,-53 6,-11 12,-47 13,-80 4,-76 17,-91 71,-77 109,28 174,52 193,69 38,36 64,109 59,167 -6,60 -5,61 78,58 156,-6 241,19 363,109 34,25 65,46 70,46 4,0 6,-60 4,-132 -3,-123 -7,-142 -43,-254 -22,-67 -36,-129 -33,-138 8,-21 56,-13 98,17 39,27 113,130 121,169 4,17 20,56 36,87 16,30 29,66 29,78 0,30 12,29 30,-1 8,-13 39,-50 68,-81 65,-70 94,-116 111,-175 7,-25 17,-56 22,-70 4,-14 11,-40 14,-58 7,-35 39,-60 51,-40 9,14 8,81 -1,151 -11,79 -47,140 -92,158 -15,5 -35,34 -57,81 -33,69 -52,95 -145,194 -48,51 -62,77 -72,129 -7,38 -5,43 45,100 28,33 81,98 116,144 36,46 89,111 118,145 28,34 73,92 100,129 26,37 71,99 100,137 37,49 64,100 89,167 20,54 44,109 53,123 10,14 48,79 85,145 68,122 139,225 154,225 5,0 24,15 43,34 20,20 56,41 89,51 l 55,17 87,-38 c 76,-32 93,-44 128,-91 48,-64 74,-130 59,-148 -8,-9 -6,-14 3,-18 23,-9 26,-52 16,-217 -7,-110 -15,-172 -30,-212 -19,-56 -118,-231 -164,-293 -13,-16 -56,-91 -96,-165 -40,-74 -92,-159 -116,-189 -46,-57 -68,-116 -83,-221 -5,-36 -13,-94 -18,-131 -8,-51 -16,-72 -41,-99 -42,-47 -63,-95 -66,-151 -2,-48 -23,-82 -93,-158 -44,-47 -64,-108 -57,-165 5,-32 14,-56 26,-64 10,-7 28,-45 40,-85 19,-65 20,-77 8,-127 -7,-30 -14,-71 -14,-90 -2,-52 -50,-143 -101,-194 -42,-41 -51,-45 -110,-51 -35,-4 -67,-11 -70,-16 -3,-5 -18,-9 -34,-9 -23,0 -35,-10 -65,-55 -20,-30 -45,-80 -55,-111 -24,-68 -34,-81 -76,-99 -24,-10 -34,-22 -39,-47 -10,-46 -22,-58 -62,-58 -50,0 -136,-46 -193,-103 -28,-28 -50,-54 -50,-59 0,-20 -96,-154 -139,-194 -44,-43 -76,-54 -154,-54 -22,0 -51,-6 -65,-14 -15,-8 -47,-21 -73,-30 -51,-18 -112,-76 -126,-121 -10,-32 -7,-51 26,-185 12,-47 26,-139 31,-205 15,-184 36,-239 97,-248 76,-12 158,23 177,76 7,20 3,39 -17,87 -15,34 -27,70 -27,80 0,10 -8,25 -19,32 -39,28 -71,131 -51,167 15,30 118,100 163,112 27,7 58,30 101,74 71,72 84,77 254,100 139,19 215,52 251,108 13,20 32,37 41,37 17,0 106,88 133,133 13,20 25,27 50,27 46,0 60,15 81,85 18,59 89,160 106,150 4,-2 10,-29 14,-59 8,-73 59,-236 98,-316 19,-39 55,-87 88,-120 30,-30 54,-60 52,-68 -4,-16 24,-78 38,-87 10,-6 49,-86 68,-140 32,-91 38,-280 12,-350 -5,-13 -12,-59 -15,-101 -3,-43 -8,-88 -11,-100 -3,-12 -3,-32 1,-44 6,-19 11,-21 48,-14 23,3 52,13 64,21 33,22 63,92 63,147 0,39 5,53 29,77 16,16 36,29 45,29 26,0 35,31 23,83 -12,54 -4,67 70,119 63,43 65,51 47,173 -9,58 -14,108 -12,109 1,2 24,6 50,10 41,6 49,4 70,-17 12,-13 50,-41 82,-63 49,-31 68,-38 112,-39 29,0 55,3 59,7 11,10 -13,47 -76,114 -33,35 -59,71 -59,80 0,9 20,38 44,66 24,28 52,72 61,97 48,134 67,170 103,194 74,49 178,102 227,115 121,31 128,85 13,103 -38,6 -58,16 -75,36 -43,51 -75,125 -80,185 -7,70 6,92 43,77 86,-32 97,10 23,81 l -50,48 6,64 c 3,35 10,79 15,98 4,19 11,58 15,85 8,58 40,184 59,229 17,41 99,121 139,136 18,7 41,16 52,21 40,17 103,29 119,23 32,-12 67,-101 77,-197 6,-51 22,-136 35,-191 14,-54 23,-100 20,-103 -7,-7 -66,43 -101,84 -15,18 -40,57 -56,85 -33,62 -39,55 -8,-10 24,-49 114,-151 152,-171 18,-9 29,-28 37,-60 17,-68 109,-229 149,-259 18,-15 44,-43 57,-63 20,-32 137,-180 211,-268 12,-14 22,-29 23,-33 0,-12 72,-132 92,-155 21,-23 17,-43 -8,-43 -59,0 -102,-67 -107,-170 -3,-53 -5,-55 -48,-81 -24,-14 -43,-32 -41,-38 1,-6 -7,-29 -18,-51 -14,-28 -28,-41 -48,-45 -110,-21 -142,-35 -142,-60 0,-15 -74,-95 -88,-95 -6,0 -16,9 -22,20 -14,26 -42,26 -65,0 -14,-15 -18,-34 -16,-79 1,-57 0,-60 -31,-79 -18,-12 -39,-30 -46,-41 -16,-27 -36,-27 -54,0 -26,40 -42,3 -62,-137 -17,-121 -20,-132 -54,-174 -20,-25 -43,-52 -51,-61 -33,-34 -62,-71 -113,-144 -29,-43 -70,-90 -93,-105 -22,-15 -55,-47 -74,-70 -21,-27 -53,-51 -86,-66 -29,-12 -56,-28 -60,-34 -13,-21 -81,-41 -137,-41 -58,0 -88,-15 -88,-44 0,-7 -10,-19 -22,-28 -13,-8 -43,-34 -68,-56 -25,-23 -60,-54 -78,-68 -20,-16 -50,-60 -74,-107 -40,-79 -53,-94 -107,-126 -14,-9 -38,-23 -52,-33 -29,-19 -85,-23 -165,-12 -48,7 -52,6 -86,-27 -52,-49 -81,-149 -76,-265 l 3,-88 -50,-10 c -28,-5 -67,-21 -88,-33 -30,-19 -37,-29 -35,-50 2,-20 -3,-29 -26,-40 -26,-13 -80,-66 -98,-97 -8,-14 7,-134 24,-185 6,-19 21,-48 32,-63 21,-30 83,-67 110,-67 20,0 29,-16 19,-34 -4,-8 -27,-28 -51,-45 -31,-23 -50,-49 -73,-99 -17,-37 -38,-83 -47,-102 -22,-48 -88,-155 -127,-210 -49,-67 -129,-200 -145,-240 -18,-47 -93,-204 -124,-260 -13,-25 -39,-76 -56,-115 -33,-74 -36,-80 -71,-160 -54,-125 -91,-195 -102,-195 -7,0 -23,7 -36,16 -21,15 -33,16 -120,4 -89,-12 -101,-16 -135,-47 -49,-45 -85,-127 -125,-287 -36,-140 -41,-150 -147,-307 -121,-178 -128,-195 -131,-329 -1,-63 -7,-137 -13,-164 -6,-27 -8,-51 -5,-54 26,-26 544,48 835,119 1330,325 2457,1219 3074,2437 207,410 366,887 440,1322 54,316 61,410 61,810 0,400 -7,494 -61,810 -54,318 -176,731 -304,1030 -329,768 -837,1418 -1500,1919 -116,88 -139,101 -164,97 l -28,-6 6,103 c 12,167 -29,314 -115,418 -39,46 -51,54 -178,109 -62,28 -81,32 -125,27 -88,-9 -177,-56 -253,-134 l -66,-69 -154,62 c -84,33 -156,63 -158,66 -3,3 24,20 60,38 119,61 197,158 248,310 22,66 24,83 16,142 -16,127 -64,197 -186,270 -131,78 -193,80 -515,17 -40,-7 -83,-8 -140,-1 -46,5 -110,8 -143,6 -62,-4 -228,-44 -289,-69 -19,-8 -97,-33 -173,-55 -76,-22 -165,-49 -198,-59 -64,-21 -227,-65 -390,-105 -96,-23 -106,-24 -255,-14 -135,8 -167,7 -250,-8 -114,-21 -145,-34 -247,-103 -75,-51 -126,-105 -168,-179 -19,-33 -27,-37 -125,-63 -58,-15 -109,-28 -114,-28 -17,-1 3,281 34,499 35,236 49,467 45,720 -3,182 -16,249 -60,325 -49,82 -183,196 -255,215 -39,10 -179,10 -236,-1 z M 3314,10703 c 16,-5 18,-12 12,-67 -3,-33 -12,-81 -20,-106 -22,-72 -78,-181 -102,-196 -22,-15 -130,-41 -138,-33 -10,10 37,286 55,321 11,21 38,52 61,68 42,30 62,32 132,13 z"
         id="path867" />
      <path
         d="m 6612,8512 c -6,-15 -13,-35 -16,-44 -3,-11 -11,-15 -21,-12 -15,6 -21,-10 -16,-46 1,-8 1,-60 1,-115 0,-106 -2,-112 -87,-280 -30,-59 -49,-122 -59,-190 -9,-66 -39,-126 -59,-119 -10,4 -15,0 -15,-14 0,-11 -17,-35 -37,-54 -97,-87 -189,-174 -198,-188 -19,-29 -65,-164 -65,-192 0,-27 2,-28 45,-28 57,0 98,17 169,69 30,23 58,41 61,41 12,0 131,101 157,134 26,33 44,81 67,181 6,28 23,77 36,110 27,67 90,242 125,350 13,39 29,79 36,90 20,32 34,97 36,168 1,54 -2,71 -18,89 -11,13 -27,34 -36,48 -12,20 -25,26 -56,27 -35,2 -41,-2 -50,-25 z"
         id="path869" />
      <path
         d="m 4435,7990 c -3,-5 -16,-10 -28,-10 -26,0 -84,-71 -116,-142 -20,-45 -34,-148 -20,-148 5,0 9,4 9,9 0,4 11,19 23,32 69,70 169,250 147,264 -5,3 -11,1 -15,-5 z"
         id="path871" />
      <path
         d="m 4360,7256 c 0,-52 43,-291 55,-309 8,-12 15,-29 15,-38 0,-9 29,-60 65,-114 36,-53 65,-106 65,-117 0,-27 18,-58 34,-58 13,0 36,-21 168,-147 21,-20 40,-43 43,-52 8,-24 91,-75 170,-106 39,-15 77,-34 85,-42 8,-7 28,-23 43,-34 46,-35 74,-89 92,-184 10,-50 20,-92 23,-95 9,-9 -8,113 -23,165 -14,47 -24,66 -78,142 -12,17 -32,49 -45,70 -26,43 -73,79 -129,98 -64,22 -143,82 -231,173 -101,104 -114,124 -131,182 -7,25 -17,56 -21,70 -5,14 -11,42 -15,63 -7,45 -91,222 -128,270 -14,18 -26,41 -28,51 -5,24 -29,34 -29,12 z"
         id="path873" />
      <path
         d="m 6694,5983 c -12,-41 -51,-106 -74,-127 -64,-57 -93,-98 -121,-172 -75,-193 -90,-364 -53,-609 23,-159 22,-199 -17,-400 -41,-214 -46,-370 -14,-425 24,-40 61,-50 98,-26 18,12 26,31 36,82 7,37 25,91 41,120 28,50 30,60 32,181 2,83 -4,172 -16,253 -10,69 -19,167 -21,218 l -2,93 41,46 41,47 2,115 c 2,141 6,173 49,356 25,105 27,137 14,199 -12,59 -27,79 -36,49 z"
         id="path875" />
      <path
         d="m 5537,5703 c -3,-4 -5,-30 -5,-58 0,-32 -8,-65 -21,-91 -20,-38 -27,-43 -69,-49 -26,-3 -60,-10 -77,-15 -16,-5 -50,-14 -75,-21 -59,-17 -240,-97 -262,-116 -10,-9 -24,-13 -32,-10 -8,3 -38,-3 -68,-14 -52,-19 -137,-18 -163,1 -5,4 -21,11 -35,15 -14,4 -33,14 -42,23 -17,14 -18,13 -18,-7 0,-61 50,-132 124,-177 l 53,-32 84,13 c 104,16 127,26 214,95 79,62 108,80 130,80 8,0 34,8 58,19 23,10 69,28 102,40 105,38 165,104 164,181 -1,84 -12,125 -36,128 -11,2 -23,0 -26,-5 z"
         id="path877" />
      <path
         d="m 6377,5026 c -3,-8 -23,-22 -44,-31 -107,-46 -127,-64 -172,-154 -26,-49 -83,-134 -115,-169 -48,-54 -75,-65 -161,-69 l -83,-4 -76,72 c -42,39 -76,76 -76,80 0,10 -39,98 -76,176 -38,77 -53,87 -118,79 -53,-7 -55,-8 -69,-50 -13,-37 -13,-56 -1,-137 14,-96 29,-160 45,-191 5,-10 9,-24 9,-31 0,-7 17,-40 39,-73 51,-79 129,-145 261,-219 30,-17 106,-113 138,-173 17,-32 42,-70 55,-86 24,-28 28,-29 83,-22 32,4 72,15 89,25 28,17 30,21 27,72 -2,49 -8,75 -32,134 -19,49 -43,93 -70,130 -35,48 -47,108 -30,140 7,13 32,34 56,47 31,16 42,28 39,39 -9,27 192,218 215,204 27,-17 108,191 83,216 -7,7 -12,6 -16,-5 z"
         id="path879" />
      <path
         d="m 7722,4390 c -32,-7 -61,-34 -62,-56 0,-23 -61,-64 -182,-123 -141,-69 -183,-104 -254,-213 -25,-37 -49,-70 -55,-73 -13,-9 -59,-112 -59,-134 0,-9 -4,-21 -9,-26 -5,-6 -28,-68 -50,-140 -23,-71 -48,-143 -55,-160 -7,-16 -26,-68 -41,-115 -15,-47 -36,-100 -46,-119 -32,-54 -35,-109 -9,-163 37,-80 128,-128 138,-73 2,11 21,43 42,70 48,64 92,157 89,187 -12,105 52,262 136,334 30,25 55,52 55,58 0,6 36,52 79,101 63,73 97,102 177,150 138,84 166,115 199,222 14,49 31,101 35,116 11,32 6,49 -40,147 -8,18 -42,22 -88,10 z"
         id="path881" />
      <path
         d="m 4581,4166 c -22,-23 -23,-28 -12,-83 30,-150 50,-290 44,-312 -6,-23 -7,-23 -19,-6 -13,18 -14,17 -14,-8 0,-18 -16,-45 -47,-80 -77,-86 -103,-119 -97,-129 10,-16 54,-8 126,25 40,19 88,39 106,47 35,14 94,79 111,121 53,140 19,304 -83,402 -56,54 -81,59 -115,23 z"
         id="path883" />
    </g>
    <path
       style="color:#000000;font-style:normal;font-variant:normal;font-weight:normal;font-stretch:normal;font-size:medium;line-height:normal;font-family:sans-serif;font-variant-ligatures:normal;font-variant-position:normal;font-variant-caps:normal;font-variant-numeric:normal;font-variant-alternates:normal;font-variant-east-asian:normal;font-feature-settings:normal;font-variation-settings:normal;text-indent:0;text-align:start;text-decoration:none;text-decoration-line:none;text-decoration-style:solid;text-decoration-color:#000000;letter-spacing:normal;word-spacing:normal;text-transform:none;writing-mode:lr-tb;direction:ltr;text-orientation:mixed;dominant-baseline:auto;baseline-shift:baseline;text-anchor:start;white-space:normal;shape-padding:0;shape-margin:0;inline-size:0;clip-rule:nonzero;display:inline;overflow:visible;visibility:visible;isolation:auto;mix-blend-mode:normal;color-interpolation:sRGB;color-interpolation-filters:linearRGB;solid-color:#000000;solid-opacity:1;vector-effect:none;fill:#000000;fill-opacity:1;fill-rule:nonzero;stroke:none;stroke-width:31.5855;stroke-linecap:round;stroke-linejoin:round;stroke-miterlimit:4;stroke-dasharray:none;stroke-dashoffset:0;stroke-opacity:1;paint-order:stroke fill markers;color-rendering:auto;image-rendering:auto;shape-rendering:auto;text-rendering:auto;enable-background:accumulate;stop-color:#000000"
       d="m -1850.5714,-327.1652 h 1280.03128 v 71.70845 H -1850.5714 Z"
       id="path944"
       inkscape:export-xdpi="96"
       inkscape:export-ydpi="96" />
    <path
       id="path848"
       style="color:#000000;font-style:normal;font-variant:normal;font-weight:normal;font-stretch:normal;font-size:medium;line-height:normal;font-family:sans-serif;font-variant-ligatures:normal;font-variant-position:normal;font-variant-caps:normal;font-variant-numeric:normal;font-variant-alternates:normal;font-variant-east-asian:normal;font-feature-settings:normal;font-variation-settings:normal;text-indent:0;text-align:start;text-decoration:none;text-decoration-line:none;text-decoration-style:solid;text-decoration-color:#000000;letter-spacing:normal;word-spacing:normal;text-transform:none;writing-mode:lr-tb;direction:ltr;text-orientation:mixed;dominant-baseline:auto;baseline-shift:baseline;text-anchor:start;white-space:normal;shape-padding:0;shape-margin:0;inline-size:0;clip-rule:nonzero;display:inline;overflow:visible;visibility:visible;isolation:auto;mix-blend-mode:normal;color-interpolation:sRGB;color-interpolation-filters:linearRGB;solid-color:#000000;solid-opacity:1;vector-effect:none;fill:#ffffff;fill-opacity:1;fill-rule:nonzero;stroke:none;stroke-width:32.2352;stroke-linecap:round;stroke-linejoin:round;stroke-miterlimit:4;stroke-dasharray:none;stroke-dashoffset:0;stroke-opacity:1;paint-order:stroke fill markers;color-rendering:auto;image-rendering:auto;shape-rendering:auto;text-rendering:auto;enable-background:accumulate;stop-color:#000000"
       d="m -1377.6047,-271.78575 c -6.0443,0.11367 -12.0126,0.93213 -17.6462,2.60017 -6.9781,2.06612 -16.4233,10.45206 -20.692,14.49756 0.01,0.006 0.056,0.0488 0.056,0.0488 l -0.8239,1.06762 -0.4884,0.61704 -0.3448,0.45345 87.1714,-2.67479 c 0,0 -10.7093,-9.73773 -17.5822,-11.98922 -9.2921,-3.04398 -19.5763,-4.81008 -29.6501,-4.62062 z" />
  </g>
</svg>
